<?xml version="1.0" ?>
<!-- Uploaded to: SVG Repo, www.svgrepo.com, Generator: SVG Repo Mixer Tools -->
<svg width="800px" height="800px" viewBox="0 0 512 512" id="Layer_1" version="1.1" xml:space="preserve" xmlns="http://www.w3.org/2000/svg" xmlns:xlink="http://www.w3.org/1999/xlink">
<style type="text/css">
	.st0{fill:#6040EC;}
	.st1{fill:#0BDC49;}
</style>
<path class="st0" d="M392.2,445.1L243.1,64.3L243,64c-3.5-8.3-11.4-13.7-20.1-13.5c-8.7,0.1-16.4,5.6-19.7,14L48.2,444.1  c-2.5,6.1,0.4,13.1,6.6,15.6c6.1,2.5,13.1-0.4,15.6-6.6L128.9,310l184.7,0.2l56.3,143.7c1.9,4.7,6.4,7.6,11.2,7.6  c1.5,0,2.9-0.3,4.4-0.8C391.6,458.2,394.6,451.2,392.2,445.1z M138.7,286l84.4-206.9l81.1,207L138.7,286z"/>
<g>
<path class="st1" d="M452.3,461.5C452.3,461.5,452.3,461.5,452.3,461.5c-6.6,0-12-5.4-12-12l0.3-386.8c0-6.6,5.4-12,12-12   c0,0,0,0,0,0c6.6,0,12,5.4,12,12l-0.3,386.8C464.3,456.1,459,461.5,452.3,461.5z"/>
</g>
</svg>