<svg xmlns="http://www.w3.org/2000/svg" xmlns:xlink="http://www.w3.org/1999/xlink" width="512" zoomAndPan="magnify" viewBox="0 0 384 383.999986" height="512" preserveAspectRatio="xMidYMid meet" version="1.2"><defs><clipPath id="bb4130579a"><path d="M 231.625 158.234375 L 302.875 158.234375 L 302.875 225.734375 L 231.625 225.734375 Z M 231.625 158.234375 "/></clipPath><clipPath id="d80abd3bdd"><path d="M 20.992188 177.132812 L 50.992188 177.132812 L 50.992188 207 L 20.992188 207 Z M 20.992188 177.132812 "/></clipPath></defs><g id="ab800f9577"><g clip-rule="nonzero" clip-path="url(#bb4130579a)"><path style=" stroke:none;fill-rule:nonzero;fill:#efece6;fill-opacity:1;" d="M 277.078125 158.234375 L 279.777344 158.234375 C 279.964844 158.269531 280.367188 158.320312 280.984375 158.386719 C 294.121094 159.820312 301.980469 171.726562 302.601562 184.097656 C 302.609375 184.257812 302.640625 184.578125 302.699219 185.050781 L 302.699219 187.820312 C 302.632812 188.476562 302.574219 189.136719 302.523438 189.792969 C 301.722656 200.121094 296.433594 210.382812 289.246094 217.738281 C 286.605469 220.4375 283.699219 222.738281 280.378906 224.433594 C 279.121094 225.078125 277.734375 225.511719 276.222656 225.734375 L 275.183594 225.734375 C 273.535156 225.46875 272.804688 224.5 272.992188 222.828125 C 273.171875 221.238281 274.199219 218.648438 272.542969 217.476562 C 271.929688 217.042969 271 216.894531 270.242188 216.976562 C 267.363281 217.28125 264.578125 218.648438 261.941406 219.847656 C 260.191406 220.648438 258.386719 221.292969 256.53125 221.785156 C 254.5 222.324219 252.511719 222.53125 250.433594 222.367188 C 247.558594 222.140625 244.242188 220.582031 244.28125 217.199219 C 244.292969 216.007812 244.664062 214.875 245.050781 213.785156 C 245.492188 212.546875 245.945312 211.203125 245.535156 209.914062 C 244.933594 208.003906 242.621094 207.109375 240.777344 206.890625 C 239.6875 206.761719 238.601562 206.722656 237.511719 206.773438 C 235.867188 206.851562 234.980469 206.878906 233.675781 206.6875 C 232.808594 206.5625 231.878906 206.234375 231.628906 205.289062 L 231.628906 204.882812 C 231.730469 204.605469 231.816406 204.308594 231.992188 204.070312 C 233.363281 202.210938 235.96875 201.363281 238.195312 200.910156 C 239.636719 200.621094 240.871094 200.425781 241.90625 200.332031 C 243.089844 200.226562 244.273438 200.128906 245.460938 200.050781 C 245.796875 200.027344 246.242188 199.964844 246.6875 199.921875 C 247.472656 199.847656 248.414062 199.6875 249.503906 199.429688 C 253.792969 198.429688 257.367188 195.695312 258.417969 191.242188 C 258.597656 190.484375 258.726562 189.710938 258.804688 188.933594 C 258.855469 188.460938 258.863281 187.484375 258.832031 185.996094 C 258.820312 185.441406 258.78125 184.675781 258.714844 183.695312 C 258.578125 181.667969 258.535156 179.632812 258.589844 177.597656 C 258.605469 177.074219 258.675781 176.539062 258.734375 175.949219 C 258.859375 174.652344 259.160156 173.253906 259.632812 171.746094 C 260.773438 168.097656 262.730469 165.105469 265.503906 162.765625 C 268.152344 160.523438 271.695312 158.921875 275.269531 158.472656 C 275.519531 158.441406 275.742188 158.359375 275.992188 158.359375 C 276.359375 158.355469 276.71875 158.3125 277.078125 158.234375 Z M 291.953125 186.308594 C 292.238281 186.316406 292.527344 186.289062 292.808594 186.226562 C 293.09375 186.164062 293.371094 186.070312 293.640625 185.941406 C 293.90625 185.8125 294.164062 185.652344 294.40625 185.464844 C 294.652344 185.277344 294.875 185.058594 295.085938 184.816406 C 295.292969 184.574219 295.480469 184.308594 295.648438 184.023438 C 295.8125 183.738281 295.957031 183.433594 296.074219 183.113281 C 296.1875 182.792969 296.28125 182.460938 296.34375 182.121094 C 296.40625 181.777344 296.441406 181.433594 296.449219 181.085938 C 296.457031 180.734375 296.433594 180.390625 296.386719 180.046875 C 296.335938 179.703125 296.261719 179.367188 296.15625 179.042969 C 296.054688 178.71875 295.925781 178.410156 295.773438 178.117188 C 295.617188 177.820312 295.441406 177.550781 295.242188 177.296875 C 295.042969 177.046875 294.828125 176.820312 294.59375 176.625 C 294.355469 176.425781 294.109375 176.253906 293.84375 176.117188 C 293.582031 175.976562 293.308594 175.871094 293.027344 175.796875 C 292.746094 175.722656 292.460938 175.683594 292.175781 175.675781 C 291.886719 175.667969 291.601562 175.699219 291.316406 175.761719 C 291.035156 175.824219 290.757812 175.917969 290.488281 176.046875 C 290.21875 176.171875 289.964844 176.332031 289.71875 176.519531 C 289.476562 176.710938 289.25 176.925781 289.042969 177.167969 C 288.832031 177.410156 288.644531 177.675781 288.480469 177.960938 C 288.3125 178.25 288.171875 178.554688 288.054688 178.875 C 287.9375 179.195312 287.847656 179.523438 287.785156 179.867188 C 287.722656 180.207031 287.683594 180.550781 287.679688 180.902344 C 287.671875 181.25 287.691406 181.597656 287.742188 181.941406 C 287.789062 182.285156 287.867188 182.617188 287.96875 182.941406 C 288.074219 183.269531 288.203125 183.578125 288.355469 183.871094 C 288.507812 184.164062 288.683594 184.4375 288.882812 184.6875 C 289.082031 184.9375 289.300781 185.164062 289.535156 185.363281 C 289.769531 185.5625 290.019531 185.730469 290.28125 185.871094 C 290.546875 186.007812 290.816406 186.117188 291.097656 186.191406 C 291.378906 186.265625 291.664062 186.304688 291.953125 186.308594 Z M 275.363281 189.113281 C 275.707031 189.128906 276.046875 189.113281 276.382812 189.058594 C 276.722656 189.003906 277.054688 188.917969 277.375 188.796875 C 277.699219 188.675781 278.003906 188.523438 278.300781 188.335938 C 278.59375 188.152344 278.867188 187.9375 279.121094 187.695312 C 279.375 187.457031 279.605469 187.191406 279.8125 186.902344 C 280.015625 186.613281 280.191406 186.304688 280.339844 185.980469 C 280.488281 185.65625 280.601562 185.316406 280.6875 184.96875 C 280.773438 184.621094 280.824219 184.265625 280.839844 183.90625 C 280.859375 183.546875 280.84375 183.191406 280.796875 182.835938 C 280.746094 182.480469 280.664062 182.132812 280.550781 181.792969 C 280.4375 181.457031 280.292969 181.132812 280.117188 180.824219 C 279.945312 180.515625 279.742188 180.230469 279.515625 179.960938 C 279.285156 179.695312 279.035156 179.457031 278.761719 179.242188 C 278.488281 179.027344 278.195312 178.84375 277.886719 178.691406 C 277.578125 178.539062 277.257812 178.417969 276.925781 178.332031 C 276.597656 178.242188 276.257812 178.191406 275.917969 178.175781 C 275.578125 178.15625 275.238281 178.175781 274.898438 178.226562 C 274.558594 178.28125 274.230469 178.367188 273.90625 178.488281 C 273.585938 178.613281 273.277344 178.765625 272.984375 178.949219 C 272.6875 179.136719 272.414062 179.347656 272.160156 179.589844 C 271.90625 179.832031 271.675781 180.097656 271.472656 180.386719 C 271.265625 180.675781 271.089844 180.980469 270.941406 181.308594 C 270.796875 181.632812 270.679688 181.96875 270.59375 182.316406 C 270.511719 182.667969 270.460938 183.019531 270.441406 183.378906 C 270.421875 183.738281 270.4375 184.097656 270.488281 184.453125 C 270.535156 184.808594 270.617188 185.15625 270.730469 185.492188 C 270.84375 185.832031 270.988281 186.15625 271.164062 186.460938 C 271.339844 186.769531 271.539062 187.058594 271.769531 187.324219 C 271.996094 187.589844 272.25 187.832031 272.523438 188.042969 C 272.796875 188.257812 273.085938 188.441406 273.394531 188.59375 C 273.703125 188.75 274.023438 188.867188 274.355469 188.957031 C 274.6875 189.042969 275.023438 189.09375 275.363281 189.113281 Z M 275.363281 189.113281 "/></g><g clip-rule="nonzero" clip-path="url(#d80abd3bdd)"><path style=" stroke:none;fill-rule:nonzero;fill:#efece6;fill-opacity:1;" d="M 46.230469 177.132812 L 25.480469 177.132812 C 23.011719 177.132812 20.992188 179.160156 20.992188 181.621094 L 20.992188 202.375 C 20.992188 204.84375 23.019531 206.863281 25.480469 206.863281 L 46.230469 206.863281 C 48.703125 206.863281 50.722656 204.835938 50.722656 202.375 L 50.722656 181.621094 C 50.722656 179.160156 48.695312 177.132812 46.230469 177.132812 Z M 48.253906 202.375 C 48.253906 203.515625 47.367188 204.398438 46.226562 204.398438 L 25.480469 204.398438 C 24.339844 204.398438 23.453125 203.515625 23.453125 202.375 L 23.453125 181.621094 C 23.453125 180.480469 24.339844 179.597656 25.480469 179.597656 L 46.230469 179.597656 C 47.371094 179.597656 48.257812 180.480469 48.257812 181.621094 L 48.257812 202.375 Z M 48.253906 202.375 "/></g><path style=" stroke:none;fill-rule:nonzero;fill:#efece6;fill-opacity:1;" d="M 35.238281 187.433594 C 35.09375 187.101562 34.765625 186.890625 34.402344 186.890625 C 34.035156 186.890625 33.710938 187.101562 33.5625 187.433594 L 29.910156 195.839844 C 29.710938 196.300781 29.921875 196.832031 30.382812 197.035156 C 30.503906 197.089844 30.625 197.113281 30.75 197.113281 C 31.101562 197.113281 31.433594 196.90625 31.585938 196.566406 L 32.386719 194.734375 L 36.445312 194.734375 L 37.246094 196.566406 C 37.445312 197.027344 37.980469 197.242188 38.441406 197.039062 C 38.902344 196.839844 39.113281 196.300781 38.914062 195.84375 Z M 33.167969 192.90625 L 34.40625 190.070312 L 35.644531 192.90625 Z M 33.167969 192.90625 "/><path style=" stroke:none;fill-rule:nonzero;fill:#efece6;fill-opacity:1;" d="M 40.972656 190.355469 C 40.46875 190.355469 40.0625 190.761719 40.0625 191.265625 L 40.0625 196.203125 C 40.0625 196.707031 40.46875 197.113281 40.972656 197.113281 C 41.476562 197.113281 41.882812 196.707031 41.882812 196.203125 L 41.882812 191.265625 C 41.882812 190.761719 41.476562 190.355469 40.972656 190.355469 Z M 40.972656 190.355469 "/><path style=" stroke:none;fill-rule:nonzero;fill:#efece6;fill-opacity:1;" d="M 40.972656 187.230469 C 40.46875 187.230469 40.0625 187.636719 40.0625 188.140625 L 40.0625 188.382812 C 40.0625 188.886719 40.46875 189.292969 40.972656 189.292969 C 41.476562 189.292969 41.882812 188.886719 41.882812 188.382812 L 41.882812 188.140625 C 41.882812 187.636719 41.476562 187.230469 40.972656 187.230469 Z M 40.972656 187.230469 "/><g style="fill:#efece6;fill-opacity:1;"><g transform="translate(50.737712, 216.785008)"><path style="stroke:none" d="M 17.703125 -26.890625 L 17.703125 -38.796875 C 17.703125 -40.617188 16.796875 -41.53125 14.984375 -41.53125 L 12.25 -41.53125 C 11.34375 -41.53125 10.890625 -41.078125 10.890625 -40.171875 L 10.890625 -25.25 C 10.929688 -24.53125 11.382812 -24.171875 12.25 -24.171875 L 14.984375 -24.171875 C 16.796875 -24.171875 17.703125 -25.078125 17.703125 -26.890625 Z M 8.171875 0 L 6.8125 0 C 4.988281 0 4.078125 -0.90625 4.078125 -2.71875 L 4.078125 -44.9375 C 4.078125 -46.75 4.988281 -47.65625 6.8125 -47.65625 L 16.34375 -47.65625 C 19.195312 -47.65625 21.269531 -47.007812 22.5625 -45.71875 C 23.863281 -44.425781 24.515625 -42.347656 24.515625 -39.484375 L 24.515625 -26.203125 C 24.515625 -23.347656 23.863281 -21.273438 22.5625 -19.984375 C 21.269531 -18.691406 19.195312 -18.046875 16.34375 -18.046875 L 12.25 -18.046875 C 11.34375 -18.046875 10.890625 -17.585938 10.890625 -16.671875 L 10.890625 -2.71875 C 10.890625 -0.90625 9.984375 0 8.171875 0 Z M 8.171875 0 "/></g></g><g style="fill:#efece6;fill-opacity:1;"><g transform="translate(77.286686, 216.785008)"><path style="stroke:none" d="M 17.703125 -26.890625 L 17.703125 -38.796875 C 17.703125 -40.617188 16.796875 -41.53125 14.984375 -41.53125 L 12.25 -41.53125 C 11.34375 -41.53125 10.890625 -41.078125 10.890625 -40.171875 L 10.890625 -25.25 C 10.890625 -24.53125 11.34375 -24.171875 12.25 -24.171875 L 14.984375 -24.171875 C 16.796875 -24.171875 17.703125 -25.078125 17.703125 -26.890625 Z M 23.34375 0 L 22.125 0 C 21.03125 0 20.203125 -0.210938 19.640625 -0.640625 C 19.078125 -1.078125 18.632812 -1.726562 18.3125 -2.59375 L 13.078125 -16.75 C 12.929688 -17.113281 12.753906 -17.40625 12.546875 -17.625 C 12.347656 -17.851562 12.066406 -17.96875 11.703125 -17.96875 C 11.160156 -17.96875 10.890625 -17.535156 10.890625 -16.671875 L 10.890625 -2.71875 C 10.890625 -0.90625 9.984375 0 8.171875 0 L 6.8125 0 C 4.988281 0 4.078125 -0.90625 4.078125 -2.71875 L 4.078125 -44.9375 C 4.078125 -46.75 4.988281 -47.65625 6.8125 -47.65625 L 16.34375 -47.65625 C 19.195312 -47.65625 21.269531 -47.007812 22.5625 -45.71875 C 23.863281 -44.425781 24.515625 -42.347656 24.515625 -39.484375 L 24.515625 -26.203125 C 24.515625 -21.847656 22.898438 -19.238281 19.671875 -18.375 L 25.390625 -2.71875 C 25.710938 -1.851562 25.632812 -1.179688 25.15625 -0.703125 C 24.675781 -0.234375 24.070312 0 23.34375 0 Z M 23.34375 0 "/></g></g><g style="fill:#efece6;fill-opacity:1;"><g transform="translate(105.197141, 216.785008)"><path style="stroke:none" d="M 8.171875 0 L 6.8125 0 C 4.988281 0 4.078125 -0.90625 4.078125 -2.71875 L 4.078125 -44.9375 C 4.078125 -46.75 4.988281 -47.65625 6.8125 -47.65625 L 8.171875 -47.65625 C 9.984375 -47.65625 10.890625 -46.75 10.890625 -44.9375 L 10.890625 -2.71875 C 10.890625 -0.90625 9.984375 0 8.171875 0 Z M 8.171875 0 "/></g></g><g style="fill:#efece6;fill-opacity:1;"><g transform="translate(120.173485, 216.785008)"><path style="stroke:none" d="M 19.203125 0 L 4.21875 0 C 3.488281 0 2.921875 -0.222656 2.515625 -0.671875 C 2.109375 -1.128906 1.992188 -1.8125 2.171875 -2.71875 L 13.078125 -40.171875 C 13.210938 -40.671875 13.140625 -41.019531 12.859375 -41.21875 C 12.585938 -41.425781 12.203125 -41.53125 11.703125 -41.53125 L 4.21875 -41.53125 C 3.3125 -41.53125 2.859375 -41.984375 2.859375 -42.890625 L 2.859375 -46.296875 C 2.859375 -47.203125 3.3125 -47.65625 4.21875 -47.65625 L 19.203125 -47.65625 C 19.921875 -47.65625 20.484375 -47.425781 20.890625 -46.96875 C 21.304688 -46.519531 21.421875 -45.84375 21.234375 -44.9375 L 10.34375 -7.484375 C 10.207031 -7.035156 10.285156 -6.695312 10.578125 -6.46875 C 10.878906 -6.238281 11.253906 -6.125 11.703125 -6.125 L 19.203125 -6.125 C 20.109375 -6.125 20.5625 -5.671875 20.5625 -4.765625 L 20.5625 -1.359375 C 20.5625 -0.453125 20.109375 0 19.203125 0 Z M 19.203125 0 "/></g></g><g style="fill:#efece6;fill-opacity:1;"><g transform="translate(143.591036, 216.785008)"><path style="stroke:none" d="M 17.703125 -26.890625 L 17.703125 -38.796875 C 17.703125 -40.617188 16.796875 -41.53125 14.984375 -41.53125 L 12.25 -41.53125 C 11.34375 -41.53125 10.890625 -41.078125 10.890625 -40.171875 L 10.890625 -25.25 C 10.890625 -24.53125 11.34375 -24.171875 12.25 -24.171875 L 14.984375 -24.171875 C 16.796875 -24.171875 17.703125 -25.078125 17.703125 -26.890625 Z M 23.34375 0 L 22.125 0 C 21.03125 0 20.203125 -0.210938 19.640625 -0.640625 C 19.078125 -1.078125 18.632812 -1.726562 18.3125 -2.59375 L 13.078125 -16.75 C 12.929688 -17.113281 12.753906 -17.40625 12.546875 -17.625 C 12.347656 -17.851562 12.066406 -17.96875 11.703125 -17.96875 C 11.160156 -17.96875 10.890625 -17.535156 10.890625 -16.671875 L 10.890625 -2.71875 C 10.890625 -0.90625 9.984375 0 8.171875 0 L 6.8125 0 C 4.988281 0 4.078125 -0.90625 4.078125 -2.71875 L 4.078125 -44.9375 C 4.078125 -46.75 4.988281 -47.65625 6.8125 -47.65625 L 16.34375 -47.65625 C 19.195312 -47.65625 21.269531 -47.007812 22.5625 -45.71875 C 23.863281 -44.425781 24.515625 -42.347656 24.515625 -39.484375 L 24.515625 -26.203125 C 24.515625 -21.847656 22.898438 -19.238281 19.671875 -18.375 L 25.390625 -2.71875 C 25.710938 -1.851562 25.632812 -1.179688 25.15625 -0.703125 C 24.675781 -0.234375 24.070312 0 23.34375 0 Z M 23.34375 0 "/></g></g><g style="fill:#efece6;fill-opacity:1;"><g transform="translate(171.501491, 216.785008)"><path style="stroke:none" d="M 11.4375 -18.046875 L 15.25 -18.046875 C 16.113281 -18.046875 16.519531 -18.5 16.46875 -19.40625 L 15.046875 -38.796875 C 15.003906 -39.660156 14.859375 -40.332031 14.609375 -40.8125 C 14.359375 -41.289062 13.9375 -41.53125 13.34375 -41.53125 C 12.75 -41.53125 12.335938 -41.289062 12.109375 -40.8125 C 11.890625 -40.332031 11.734375 -39.660156 11.640625 -38.796875 L 10.21875 -19.40625 C 10.164062 -18.5 10.570312 -18.046875 11.4375 -18.046875 Z M 21.859375 -39.484375 L 24.578125 -2.71875 C 24.710938 -0.90625 23.804688 0 21.859375 0 L 20.484375 0 C 19.535156 0 18.867188 -0.210938 18.484375 -0.640625 C 18.097656 -1.078125 17.859375 -1.769531 17.765625 -2.71875 L 17.15625 -10.546875 C 17.113281 -11.453125 16.632812 -11.90625 15.71875 -11.90625 L 10.953125 -11.90625 C 10.046875 -11.90625 9.570312 -11.453125 9.53125 -10.546875 L 8.921875 -2.71875 C 8.867188 -1.769531 8.628906 -1.078125 8.203125 -0.640625 C 7.773438 -0.210938 7.101562 0 6.1875 0 L 4.828125 0 C 2.878906 0 1.972656 -0.90625 2.109375 -2.71875 L 4.828125 -39.484375 C 5.054688 -42.347656 5.75 -44.425781 6.90625 -45.71875 C 8.0625 -47.007812 10.09375 -47.65625 13 -47.65625 L 13.6875 -47.65625 C 16.539062 -47.65625 18.566406 -47.007812 19.765625 -45.71875 C 20.972656 -44.425781 21.671875 -42.347656 21.859375 -39.484375 Z M 21.859375 -39.484375 "/></g></g><g style="fill:#efece6;fill-opacity:1;"><g transform="translate(198.186605, 216.785008)"><path style="stroke:none" d="M 19.125 -25.53125 L 26.890625 -2.71875 C 27.210938 -1.851562 27.132812 -1.179688 26.65625 -0.703125 C 26.175781 -0.234375 25.570312 0 24.84375 0 L 23.484375 0 C 21.710938 0 20.554688 -0.863281 20.015625 -2.59375 L 13.34375 -22.1875 C 13.207031 -22.550781 13.023438 -22.859375 12.796875 -23.109375 C 12.566406 -23.359375 12.269531 -23.484375 11.90625 -23.484375 C 11.226562 -23.484375 10.890625 -23.03125 10.890625 -22.125 L 10.890625 -2.71875 C 10.890625 -0.90625 9.984375 0 8.171875 0 L 6.8125 0 C 4.988281 0 4.078125 -0.90625 4.078125 -2.71875 L 4.078125 -44.9375 C 4.078125 -46.75 4.988281 -47.65625 6.8125 -47.65625 L 8.171875 -47.65625 C 9.984375 -47.65625 10.890625 -46.75 10.890625 -44.9375 L 10.890625 -30.96875 C 10.890625 -30.0625 11.1875 -29.609375 11.78125 -29.609375 C 12.320312 -29.609375 12.753906 -30.039062 13.078125 -30.90625 L 17.96875 -45.0625 C 18.238281 -45.882812 18.632812 -46.519531 19.15625 -46.96875 C 19.6875 -47.425781 20.445312 -47.65625 21.4375 -47.65625 L 22.8125 -47.65625 C 23.53125 -47.65625 24.128906 -47.425781 24.609375 -46.96875 C 25.085938 -46.519531 25.164062 -45.84375 24.84375 -44.9375 L 19.125 -28.109375 C 18.851562 -27.253906 18.851562 -26.394531 19.125 -25.53125 Z M 19.125 -25.53125 "/></g></g></g></svg>