<svg xmlns="http://www.w3.org/2000/svg" xmlns:xlink="http://www.w3.org/1999/xlink" width="512" zoomAndPan="magnify" viewBox="0 0 384 383.999986" height="512" preserveAspectRatio="xMidYMid meet" version="1.2"><defs><clipPath id="dba6425fde"><path d="M 14.683594 47.5 L 317.683594 47.5 L 317.683594 334.75 L 14.683594 334.75 Z M 14.683594 47.5 "/></clipPath><clipPath id="28473a514e"><path d="M 97.226562 59.675781 L 127 59.675781 L 127 89.675781 L 97.226562 89.675781 Z M 97.226562 59.675781 "/></clipPath></defs><g id="7d37c83536"><g clip-rule="nonzero" clip-path="url(#dba6425fde)"><path style=" stroke:none;fill-rule:nonzero;fill:#1800ad;fill-opacity:1;" d="M 208.101562 47.5 L 219.589844 47.5 C 220.390625 47.648438 222.097656 47.867188 224.714844 48.152344 C 280.625 54.238281 314.066406 104.921875 316.707031 157.550781 C 316.738281 158.25 316.878906 159.605469 317.128906 161.621094 L 317.128906 173.40625 C 316.851562 176.199219 316.605469 178.996094 316.390625 181.792969 C 312.976562 225.75 290.472656 269.421875 259.878906 300.710938 C 248.640625 312.207031 236.28125 321.996094 222.144531 329.214844 C 216.792969 331.949219 210.898438 333.796875 204.464844 334.75 L 200.042969 334.75 C 193.027344 333.609375 189.914062 329.488281 190.710938 322.382812 C 191.46875 315.617188 195.847656 304.59375 188.800781 299.609375 C 186.183594 297.761719 182.234375 297.132812 179.007812 297.476562 C 166.753906 298.78125 154.902344 304.582031 143.679688 309.703125 C 136.230469 313.097656 128.558594 315.84375 120.667969 317.9375 C 112.015625 320.230469 103.550781 321.113281 94.714844 320.417969 C 82.472656 319.445312 68.367188 312.824219 68.523438 298.417969 C 68.585938 293.355469 70.15625 288.523438 71.804688 283.902344 C 73.683594 278.617188 75.605469 272.90625 73.875 267.425781 C 71.300781 259.289062 61.472656 255.480469 53.617188 254.550781 C 48.988281 254 44.355469 253.835938 39.71875 254.054688 C 32.722656 254.386719 28.957031 254.511719 23.398438 253.699219 C 19.710938 253.160156 15.75 251.757812 14.683594 247.730469 L 14.683594 246.011719 C 15.121094 244.835938 15.480469 243.570312 16.226562 242.554688 C 22.070312 234.648438 33.148438 231.027344 42.628906 229.109375 C 48.757812 227.867188 54.023438 227.046875 58.421875 226.648438 C 63.457031 226.1875 68.496094 225.789062 73.542969 225.449219 C 74.976562 225.355469 76.875 225.074219 78.765625 224.898438 C 82.113281 224.589844 86.113281 223.894531 90.761719 222.804688 C 109 218.542969 124.214844 206.917969 128.679688 187.96875 C 129.445312 184.730469 130 181.449219 130.34375 178.128906 C 130.550781 176.132812 130.589844 171.96875 130.457031 165.628906 C 130.40625 163.285156 130.238281 160.023438 129.949219 155.847656 C 129.363281 147.210938 129.183594 138.5625 129.417969 129.902344 C 129.480469 127.664062 129.789062 125.394531 130.035156 122.875 C 130.570312 117.367188 131.84375 111.40625 133.851562 104.992188 C 138.714844 89.476562 147.042969 76.734375 158.835938 66.773438 C 170.121094 57.246094 185.199219 50.417969 200.394531 48.511719 C 201.46875 48.371094 202.410156 48.035156 203.472656 48.023438 C 205.03125 48.007812 206.574219 47.832031 208.101562 47.5 Z M 271.394531 166.972656 C 272.007812 166.984375 272.617188 166.960938 273.226562 166.902344 C 273.835938 166.84375 274.445312 166.746094 275.046875 166.613281 C 275.648438 166.484375 276.246094 166.316406 276.832031 166.113281 C 277.421875 165.910156 278.003906 165.671875 278.574219 165.402344 C 279.144531 165.128906 279.703125 164.824219 280.25 164.484375 C 280.796875 164.148438 281.328125 163.777344 281.84375 163.378906 C 282.359375 162.976562 282.859375 162.546875 283.34375 162.085938 C 283.824219 161.625 284.289062 161.136719 284.730469 160.621094 C 285.175781 160.109375 285.59375 159.566406 285.996094 159.003906 C 286.394531 158.4375 286.769531 157.851562 287.125 157.242188 C 287.476562 156.632812 287.804688 156.003906 288.105469 155.359375 C 288.40625 154.710938 288.683594 154.046875 288.929688 153.367188 C 289.179688 152.6875 289.398438 151.996094 289.589844 151.289062 C 289.785156 150.582031 289.945312 149.867188 290.082031 149.144531 C 290.214844 148.417969 290.320312 147.691406 290.394531 146.953125 C 290.472656 146.21875 290.515625 145.476562 290.53125 144.738281 C 290.546875 143.996094 290.53125 143.257812 290.488281 142.519531 C 290.445312 141.777344 290.371094 141.042969 290.265625 140.316406 C 290.160156 139.585938 290.027344 138.863281 289.867188 138.152344 C 289.703125 137.4375 289.511719 136.738281 289.292969 136.046875 C 289.074219 135.359375 288.828125 134.683594 288.550781 134.023438 C 288.277344 133.367188 287.976562 132.722656 287.648438 132.101562 C 287.324219 131.476562 286.972656 130.875 286.597656 130.292969 C 286.222656 129.714844 285.824219 129.15625 285.402344 128.625 C 284.980469 128.089844 284.539062 127.582031 284.074219 127.101562 C 283.613281 126.625 283.132812 126.171875 282.632812 125.75 C 282.132812 125.328125 281.617188 124.9375 281.085938 124.574219 C 280.554688 124.214844 280.007812 123.886719 279.449219 123.589844 C 278.890625 123.296875 278.320312 123.035156 277.742188 122.808594 C 277.160156 122.578125 276.570312 122.386719 275.976562 122.230469 C 275.378906 122.074219 274.777344 121.953125 274.171875 121.867188 C 273.5625 121.78125 272.953125 121.730469 272.34375 121.71875 C 271.734375 121.707031 271.121094 121.730469 270.511719 121.789062 C 269.902344 121.851562 269.296875 121.945312 268.695312 122.078125 C 268.089844 122.210938 267.496094 122.378906 266.90625 122.582031 C 266.316406 122.78125 265.738281 123.019531 265.167969 123.292969 C 264.59375 123.5625 264.035156 123.867188 263.492188 124.207031 C 262.945312 124.542969 262.414062 124.914062 261.894531 125.316406 C 261.378906 125.714844 260.878906 126.148438 260.398438 126.609375 C 259.914062 127.066406 259.453125 127.554688 259.007812 128.070312 C 258.566406 128.585938 258.144531 129.125 257.746094 129.691406 C 257.34375 130.253906 256.96875 130.839844 256.617188 131.449219 C 256.261719 132.058594 255.9375 132.6875 255.632812 133.335938 C 255.332031 133.984375 255.058594 134.648438 254.808594 135.328125 C 254.5625 136.007812 254.339844 136.699219 254.148438 137.402344 C 253.957031 138.109375 253.792969 138.824219 253.660156 139.546875 C 253.523438 140.273438 253.417969 141.003906 253.34375 141.738281 C 253.269531 142.476562 253.222656 143.214844 253.207031 143.957031 C 253.191406 144.695312 253.207031 145.4375 253.25 146.175781 C 253.296875 146.914062 253.371094 147.648438 253.472656 148.378906 C 253.578125 149.105469 253.710938 149.828125 253.875 150.539062 C 254.035156 151.253906 254.226562 151.953125 254.445312 152.644531 C 254.667969 153.332031 254.914062 154.007812 255.1875 154.667969 C 255.460938 155.328125 255.761719 155.96875 256.089844 156.59375 C 256.417969 157.214844 256.765625 157.816406 257.144531 158.398438 C 257.519531 158.980469 257.917969 159.535156 258.339844 160.070312 C 258.757812 160.601562 259.203125 161.109375 259.664062 161.589844 C 260.125 162.070312 260.609375 162.519531 261.109375 162.941406 C 261.605469 163.363281 262.121094 163.757812 262.65625 164.117188 C 263.1875 164.476562 263.730469 164.804688 264.289062 165.101562 C 264.847656 165.398438 265.417969 165.660156 266 165.886719 C 266.578125 166.113281 267.167969 166.304688 267.765625 166.460938 C 268.359375 166.621094 268.960938 166.742188 269.570312 166.824219 C 270.175781 166.910156 270.785156 166.960938 271.394531 166.972656 Z M 200.804688 178.898438 C 201.53125 178.9375 202.253906 178.933594 202.980469 178.898438 C 203.703125 178.859375 204.425781 178.785156 205.144531 178.671875 C 205.863281 178.558594 206.574219 178.410156 207.277344 178.222656 C 207.984375 178.035156 208.679688 177.8125 209.363281 177.558594 C 210.046875 177.300781 210.71875 177.007812 211.375 176.679688 C 212.03125 176.351562 212.671875 175.992188 213.296875 175.601562 C 213.921875 175.207031 214.527344 174.78125 215.109375 174.328125 C 215.695312 173.871094 216.257812 173.386719 216.796875 172.875 C 217.335938 172.363281 217.851562 171.824219 218.339844 171.257812 C 218.832031 170.691406 219.292969 170.101562 219.726562 169.488281 C 220.164062 168.875 220.566406 168.242188 220.941406 167.585938 C 221.320312 166.929688 221.664062 166.257812 221.976562 165.566406 C 222.289062 164.878906 222.570312 164.171875 222.816406 163.453125 C 223.0625 162.734375 223.277344 162.007812 223.457031 161.265625 C 223.636719 160.523438 223.78125 159.777344 223.890625 159.023438 C 224 158.265625 224.074219 157.507812 224.113281 156.746094 C 224.152344 155.984375 224.152344 155.222656 224.121094 154.460938 C 224.089844 153.699219 224.019531 152.9375 223.917969 152.183594 C 223.8125 151.429688 223.675781 150.683594 223.5 149.941406 C 223.328125 149.203125 223.121094 148.472656 222.878906 147.753906 C 222.636719 147.035156 222.363281 146.332031 222.054688 145.644531 C 221.746094 144.953125 221.410156 144.28125 221.039062 143.628906 C 220.667969 142.972656 220.265625 142.339844 219.835938 141.726562 C 219.40625 141.113281 218.949219 140.527344 218.464844 139.960938 C 217.980469 139.394531 217.46875 138.859375 216.933594 138.347656 C 216.398438 137.835938 215.839844 137.351562 215.257812 136.898438 C 214.675781 136.441406 214.074219 136.019531 213.453125 135.628906 C 212.832031 135.238281 212.195312 134.878906 211.542969 134.550781 C 210.886719 134.226562 210.21875 133.9375 209.535156 133.679688 C 208.851562 133.421875 208.160156 133.203125 207.457031 133.019531 C 206.753906 132.832031 206.042969 132.683594 205.324219 132.574219 C 204.609375 132.460938 203.886719 132.386719 203.164062 132.351562 C 202.4375 132.316406 201.714844 132.316406 200.988281 132.355469 C 200.261719 132.390625 199.542969 132.46875 198.824219 132.582031 C 198.105469 132.691406 197.394531 132.84375 196.6875 133.027344 C 195.984375 133.214844 195.289062 133.4375 194.605469 133.695312 C 193.921875 133.953125 193.25 134.246094 192.59375 134.570312 C 191.933594 134.898438 191.292969 135.257812 190.671875 135.652344 C 190.046875 136.042969 189.441406 136.46875 188.855469 136.921875 C 188.273438 137.378906 187.710938 137.863281 187.171875 138.375 C 186.628906 138.890625 186.117188 139.429688 185.625 139.996094 C 185.136719 140.558594 184.675781 141.148438 184.238281 141.761719 C 183.804688 142.375 183.398438 143.011719 183.023438 143.664062 C 182.648438 144.320312 182.304688 144.992188 181.992188 145.683594 C 181.679688 146.375 181.398438 147.078125 181.152344 147.796875 C 180.902344 148.515625 180.691406 149.246094 180.511719 149.984375 C 180.332031 150.726562 180.1875 151.472656 180.078125 152.230469 C 179.96875 152.984375 179.894531 153.742188 179.855469 154.503906 C 179.816406 155.265625 179.8125 156.027344 179.847656 156.792969 C 179.878906 157.554688 179.949219 158.3125 180.050781 159.066406 C 180.15625 159.820312 180.292969 160.570312 180.464844 161.308594 C 180.640625 162.050781 180.847656 162.777344 181.089844 163.496094 C 181.332031 164.214844 181.605469 164.917969 181.914062 165.609375 C 182.21875 166.296875 182.558594 166.96875 182.929688 167.625 C 183.300781 168.277344 183.699219 168.910156 184.128906 169.523438 C 184.5625 170.136719 185.019531 170.726562 185.503906 171.289062 C 185.988281 171.855469 186.5 172.394531 187.035156 172.90625 C 187.570312 173.417969 188.128906 173.898438 188.710938 174.355469 C 189.289062 174.808594 189.890625 175.230469 190.511719 175.621094 C 191.132812 176.015625 191.773438 176.375 192.425781 176.699219 C 193.082031 177.023438 193.75 177.316406 194.433594 177.570312 C 195.113281 177.828125 195.808594 178.046875 196.511719 178.234375 C 197.214844 178.417969 197.925781 178.566406 198.640625 178.675781 C 199.359375 178.789062 200.082031 178.863281 200.804688 178.898438 Z M 200.804688 178.898438 "/></g><g clip-rule="nonzero" clip-path="url(#28473a514e)"><path style=" stroke:none;fill-rule:nonzero;fill:#1800ad;fill-opacity:1;" d="M 122.46875 59.675781 L 101.71875 59.675781 C 99.246094 59.675781 97.226562 61.699219 97.226562 64.164062 L 97.226562 84.914062 C 97.226562 87.382812 99.253906 89.40625 101.71875 89.40625 L 122.46875 89.40625 C 124.9375 89.40625 126.957031 87.378906 126.957031 84.914062 L 126.957031 64.164062 C 126.957031 61.699219 124.929688 59.675781 122.46875 59.675781 Z M 124.488281 84.914062 C 124.488281 86.054688 123.601562 86.941406 122.460938 86.941406 L 101.71875 86.941406 C 100.578125 86.941406 99.691406 86.054688 99.691406 84.914062 L 99.691406 64.164062 C 99.691406 63.023438 100.578125 62.136719 101.71875 62.136719 L 122.46875 62.136719 C 123.609375 62.136719 124.492188 63.023438 124.492188 64.164062 L 124.492188 84.914062 Z M 124.488281 84.914062 "/></g><path style=" stroke:none;fill-rule:nonzero;fill:#1800ad;fill-opacity:1;" d="M 111.472656 69.976562 C 111.328125 69.644531 111 69.429688 110.636719 69.429688 C 110.273438 69.429688 109.945312 69.644531 109.796875 69.976562 L 106.144531 78.378906 C 105.945312 78.839844 106.160156 79.375 106.621094 79.574219 C 106.742188 79.628906 106.863281 79.652344 106.984375 79.652344 C 107.335938 79.652344 107.667969 79.449219 107.820312 79.109375 L 108.621094 77.277344 L 112.679688 77.277344 L 113.480469 79.109375 C 113.683594 79.570312 114.214844 79.78125 114.675781 79.582031 C 115.136719 79.382812 115.351562 78.839844 115.148438 78.386719 Z M 109.40625 75.449219 L 110.640625 72.609375 L 111.878906 75.449219 Z M 109.40625 75.449219 "/><path style=" stroke:none;fill-rule:nonzero;fill:#1800ad;fill-opacity:1;" d="M 117.207031 72.894531 C 116.703125 72.894531 116.296875 73.300781 116.296875 73.804688 L 116.296875 78.742188 C 116.296875 79.246094 116.703125 79.652344 117.207031 79.652344 C 117.710938 79.652344 118.117188 79.246094 118.117188 78.742188 L 118.117188 73.804688 C 118.117188 73.300781 117.710938 72.894531 117.207031 72.894531 Z M 117.207031 72.894531 "/><path style=" stroke:none;fill-rule:nonzero;fill:#1800ad;fill-opacity:1;" d="M 117.207031 69.769531 C 116.703125 69.769531 116.296875 70.175781 116.296875 70.679688 L 116.296875 70.921875 C 116.296875 71.425781 116.703125 71.832031 117.207031 71.832031 C 117.710938 71.832031 118.117188 71.425781 118.117188 70.921875 L 118.117188 70.679688 C 118.117188 70.175781 117.710938 69.769531 117.207031 69.769531 Z M 117.207031 69.769531 "/></g></svg>