<?xml version="1.0" encoding="iso-8859-1"?>
<!-- Uploaded to: SVG Repo, www.svgrepo.com, Generator: SVG Repo Mixer Tools -->
<svg fill="#000000" height="800px" width="800px" version="1.1" id="Layer_1" xmlns="http://www.w3.org/2000/svg" xmlns:xlink="http://www.w3.org/1999/xlink" 
	 viewBox="0 0 488 488" xml:space="preserve">
<g transform="translate(0 -540.36)">
	<g>
		<g>
			<path d="M176.1,899.76l-20.6,19.9c-4,3.8-4.1,10.1-0.3,14.1c2,2.1,4.6,3.1,7.2,3.1c2.5,0,5-0.9,6.9-2.8l20.6-19.9
				c4-3.8,4.1-10.1,0.3-14.1S180.1,895.96,176.1,899.76z"/>
			<path d="M338.3,899.96l-19.8,19.9c-3.9,3.9-3.9,10.2,0,14.1c2,1.9,4.5,2.9,7.1,2.9c2.5,0,5.1-1,7-2.9l19.8-19.9
				c3.9-3.9,3.9-10.2,0-14.1C348.5,896.06,342.2,896.06,338.3,899.96z"/>
			<path d="M420.1,899.76l-20.6,19.9c-4,3.8-4.1,10.1-0.3,14.1c2,2.1,4.6,3.1,7.2,3.1c2.5,0,5-0.9,6.9-2.8l20.6-19.9
				c4-3.8,4.1-10.1,0.3-14.1C430.4,896.06,424.1,895.96,420.1,899.76z"/>
			<path d="M94.3,899.96l-19.8,19.9c-3.9,3.9-3.9,10.2,0,14.1c2,1.9,4.5,2.9,7.1,2.9c2.6,0,5.2-1,7-2.9l19.8-19.9
				c3.9-3.9,3.9-10.2,0-14.1C104.5,896.06,98.2,896.06,94.3,899.96z"/>
			<path d="M318.5,971.06l-20.6,20.6c-3.9,3.9-3.9,10.2,0,14.1c2,1.9,4.5,2.9,7.1,2.9c2.5,0,5.1-1,7-2.9l20.6-20.6
				c3.9-3.9,3.9-10.2,0-14.1C328.7,967.16,322.4,967.16,318.5,971.06z"/>
			<path d="M399.1,971.16l-19.8,20.6c-3.8,3.9-3.7,10.3,0.3,14.1c1.9,1.9,4.4,2.8,6.9,2.8c2.7,0,5.3-1,7.2-3.1l19.8-20.6
				c3.8-3.9,3.7-10.3-0.3-14.1C409.3,967.06,402.9,967.16,399.1,971.16z"/>
			<path d="M155.2,971.16l-19.8,20.6c-3.8,3.9-3.7,10.3,0.3,14.1c1.9,1.9,4.4,2.8,6.9,2.8c2.7,0,5.3-1,7.2-3.1l19.8-20.6
				c3.8-3.9,3.7-10.3-0.3-14.1C165.4,967.06,159,967.16,155.2,971.16z"/>
			<path d="M272.9,937.66l-34.5,5.6l33.9-40.5c3.5-4.3,2.9-10.6-1.3-14.1c-4.3-3.5-10.6-2.9-14.1,1.3l-51.1,61.1
				c-2.7,3.2-3.1,7.8-1,11.4c2.1,3.6,6.2,5.6,10.3,4.9l34.5-5.6l-33.9,40.5c-3.5,4.3-2.9,10.6,1.3,14.1c1.9,1.5,4.1,2.3,6.4,2.3
				c2.9,0,5.7-1.3,7.7-3.6l51.1-61.1c2.7-3.2,3.1-7.8,1-11.4C281.1,938.96,277,936.96,272.9,937.66z"/>
			<polygon points="223.4,1018.66 223.4,1018.66 223.4,1018.66 			"/>
			<path d="M74.6,971.06L54,991.66c-3.9,3.9-3.9,10.2,0,14.1c2,1.9,4.5,2.9,7.1,2.9c2.5,0,5.1-1,7-2.9l20.6-20.6
				c3.9-3.9,3.9-10.2,0-14.1C84.8,967.16,78.5,967.16,74.6,971.06z"/>
			<path d="M366,621.96c-10,0-19.8,1.2-29.3,3.5c-18.2-45.4-62.7-75.4-113.3-75.4c-44.5,0-85.6,25.2-107.1,64.9
				c-8.1-2.4-16.7-3.7-24.7-3.7c-50.5,0-91.6,41.2-91.6,91.8s41.1,91.8,91.6,91.8l53.2-0.3c9.3,40.8,45.8,71.4,89.3,71.4H366
				c67.3,0,122-54.9,122-122.3C488,676.46,433.3,621.96,366,621.96z M142.6,773.96c0,0.1,0,0.2,0,0.4l-51,0.4l0,0
				c-39.5,0-71.6-32.2-71.6-71.8s32.1-71.8,71.6-71.8c8.3,0,17.7,1.9,25.9,5.3c5,2.1,10.7-0.2,13-5.1c16.8-37.3,53.4-61.4,93-61.4
				c41.9,0,78.8,24.5,94.3,61.7c-25.1,10.7-46.1,29.7-59.1,54.4c-7.8-2.1-15.9-3.1-24.5-3.1c-24.4,0-47.4,9.4-64.7,26.5
				C152.2,726.66,142.6,749.56,142.6,773.96z M366,845.76L366,845.76l-131.9,0c-39.5,0-71.6-32.2-71.6-71.8c0-39.1,32.1-71,71.6-71
				c9.4,0,18,1.5,26.1,4.7c5,1.9,10.6-0.4,12.8-5.4c15.9-36.7,52.4-60.4,93-60.4c56.3,0,102,45.6,102,101.6
				C468,799.86,422.2,845.76,366,845.76z"/>
		</g>
	</g>
</g>
</svg>