<?xml version="1.0" ?>
<!DOCTYPE svg  PUBLIC '-//W3C//DTD SVG 1.1//EN'  'http://www.w3.org/Graphics/SVG/1.1/DTD/svg11.dtd'>
<!-- Uploaded to: SVG Repo, www.svgrepo.com, Generator: SVG Repo Mixer Tools -->
<svg fill="#000000" width="800px" height="800px" viewBox="0 0 512 512" version="1.1" xml:space="preserve" xmlns="http://www.w3.org/2000/svg" xmlns:xlink="http://www.w3.org/1999/xlink">
<g id="_x35_21_x2C__City_x2C__management_x2C__monitoring_x2C__smart_x2C__traffic">
<g>
<path d="M348.135,74.718H232.367v24.581v52.989v38.583v0.102v52.854v0.034v38.583    v0.101V335.4v0.066v24.614c38.583,0,77.185,0,115.768,0v-77.536v-0.101v-91.472v-0.102V99.398v-0.1V74.718z M309.702,106.182    c-4.97-4.969-11.869-8.059-19.46-8.059c-7.504,0-14.305,3.021-19.257,7.857l-0.186,0.201c-4.97,5.004-8.059,11.889-8.059,19.477    c0,7.59,3.089,14.474,8.059,19.443c4.969,4.971,11.854,8.06,19.442,8.06c7.591,0,14.49-3.089,19.46-8.06    c4.987-4.936,8.075-11.854,8.075-19.443C317.777,118.07,314.689,111.186,309.702,106.182z M290.242,89.896    c9.872,0,18.839,3.995,25.304,10.477c6.464,6.447,10.476,15.414,10.476,25.285c0,9.84-4.012,18.806-10.493,25.287    c-6.447,6.48-15.414,10.477-25.286,10.477c-9.837,0-18.804-3.996-25.269-10.477c-6.482-6.481-10.493-15.414-10.493-25.287    c0-9.871,4.011-18.838,10.476-25.285l0.271-0.269C271.673,93.792,280.538,89.896,290.242,89.896z M309.702,197.957    c-4.97-4.971-11.869-8.06-19.46-8.06c-7.588,0-14.474,3.089-19.442,8.025c-4.97,5.004-8.059,11.888-8.059,19.478    c0,7.589,3.089,14.473,8.059,19.441c4.969,5.004,11.854,8.061,19.442,8.061c7.591,0,14.49-3.057,19.46-8.061    c4.987-4.936,8.075-11.819,8.075-19.441c0-7.522-3.021-14.307-7.857-19.275L309.702,197.957z M290.242,181.637    c9.872,0,18.839,3.996,25.304,10.477l0.253,0.27c6.313,6.447,10.223,15.313,10.223,25.018c0,9.871-4.012,18.805-10.493,25.285    c-6.447,6.48-15.414,10.477-25.286,10.477c-9.837,0-18.804-3.996-25.269-10.477c-6.482-6.447-10.493-15.414-10.493-25.285    c0-9.84,4.011-18.771,10.476-25.253C271.47,185.633,280.405,181.637,290.242,181.637z M309.702,289.697    c-4.97-4.969-11.869-8.059-19.46-8.059c-7.504,0-14.305,3.021-19.257,7.857l-0.186,0.201c-4.97,4.971-8.059,11.854-8.059,19.477    c0,7.59,3.089,14.474,8.059,19.443c4.969,4.97,11.854,8.059,19.442,8.059c7.591,0,14.49-3.089,19.46-8.059    c4.987-4.97,8.075-11.854,8.075-19.443C317.777,301.552,314.689,294.668,309.702,289.697z M290.242,273.378    c9.872,0,18.839,4.029,25.304,10.478c6.464,6.48,10.476,15.446,10.476,25.318c0,9.84-4.012,18.771-10.493,25.253    c-6.447,6.48-15.414,10.511-25.286,10.511c-9.837,0-18.804-4.03-25.269-10.511c-6.482-6.448-10.493-15.38-10.493-25.253    c0-9.872,4.011-18.838,10.476-25.318l0.271-0.236C271.673,277.307,280.538,273.378,290.242,273.378z M356.396,103.529v37.006    l29.684-37.006H356.396z M356.396,195.102v37.007l29.684-37.007H356.396z M356.396,286.676v37.005l29.684-37.005H356.396z     M224.123,140.535v-37.006h-29.701L224.123,140.535z M224.123,232.108v-37.007h-29.701L224.123,232.108z M224.123,323.681v-37.005    h-29.718L224.123,323.681z M133.96,49.936c-2.285,0-4.13-1.848-4.13-4.13c0-2.25,1.846-4.131,4.13-4.131h289.829    c2.285,0,4.131,1.881,4.131,4.131V414.75c0,2.283-1.846,4.13-4.131,4.13c-2.281,0-4.127-1.847-4.127-4.13V49.936H133.96z     M114.048,204.035h25.286v-45.232h-25.286V204.035z M114.048,257.494h25.286v-45.199h-25.286V257.494z M89.938,265.756    c-2.285,0-4.131-1.848-4.131-4.131c0-2.284,1.846-4.131,4.131-4.131h15.849v-45.199H89.938c-2.285,0-4.131-1.847-4.131-4.129    c0-2.284,1.846-4.131,4.131-4.131h15.849v-45.232H89.938c-2.285,0-4.131-1.848-4.131-4.098c0-2.283,1.846-4.129,4.131-4.129    h15.849v-43.084L88.025,94.025l-0.137,0.136c-3.39,3.358-8.026,5.44-13.111,5.44c-5.12,0-9.756-2.082-13.115-5.407    c-3.324-3.358-5.405-7.991-5.405-13.13c0-5.07,2.081-9.738,5.405-13.063c3.376-3.358,8.026-5.44,13.115-5.44    c5.103,0,9.739,2.082,13.08,5.406c3.373,3.358,5.457,8.026,5.457,13.097c0,2.082-0.354,4.063-0.958,5.91l19.878,15.043    l0.302,0.235l0.035,0.034c0.168,0.135,0.354,0.303,0.505,0.504l0.032,0.033l0.27,0.369l0.014,0.033    c0.421,0.639,0.656,1.378,0.656,2.217v45.133h25.286V123.51c-3.46-0.806-6.548-2.552-8.967-4.97    c-3.358-3.358-5.439-7.992-5.439-13.097c0-5.137,2.081-9.771,5.422-13.096l0.252-0.235c3.327-3.224,7.875-5.205,12.862-5.205    c5.103,0,9.756,2.081,13.098,5.44c3.355,3.324,5.422,7.959,5.422,13.096c0,5.104-2.081,9.738-5.422,13.097    c-2.418,2.418-5.51,4.164-8.967,4.97v27.066h18.284c2.267,0,4.131,1.846,4.131,4.129c0,2.25-1.864,4.098-4.131,4.098h-18.284    v45.232h18.284c2.267,0,4.131,1.847,4.131,4.131c0,2.282-1.864,4.129-4.131,4.129h-18.284v45.199h18.284    c2.267,0,4.131,1.847,4.131,4.131c0,2.283-1.864,4.131-4.131,4.131h-18.284v31.732c3.457,0.772,6.548,2.518,8.967,4.937    c3.355,3.357,5.422,7.991,5.422,13.13c0,5.07-2.081,9.738-5.422,13.063c-3.359,3.358-8.009,5.44-13.098,5.44    c-5.103,0-9.739-2.082-13.098-5.407c-3.358-3.357-5.439-8.025-5.439-13.096c0-5.139,2.081-9.772,5.422-13.13l0.252-0.235    c2.386-2.283,5.373-3.963,8.731-4.701v-31.732h-25.286v49.799c0,0.807-0.235,1.578-0.656,2.216h-0.014l-0.27,0.403h-0.032    c-0.151,0.201-0.337,0.369-0.505,0.537h-0.035l-0.302,0.235L92.355,333.99c0.621,1.847,0.958,3.861,0.958,5.91    c0,5.104-2.084,9.737-5.426,13.096c-3.373,3.357-8.008,5.439-13.111,5.439c-5.089,0-9.739-2.082-13.08-5.439    c-3.358-3.358-5.439-7.992-5.439-13.096c0-5.104,2.081-9.738,5.405-13.096c3.376-3.359,8.026-5.441,13.115-5.441    c5.121,0,9.753,2.082,13.111,5.441l0.137,0.134l17.761-13.433v-47.75H89.938z M127.229,449.605c-2.267,0-4.131-1.847-4.131-4.129    c0-2.284,1.864-4.131,4.131-4.131H370.23c2.285,0,4.131,1.847,4.131,4.131c0,2.282-1.846,4.129-4.131,4.129H127.229z     M481.868,441.346c2.284,0,4.131,1.847,4.131,4.131c0,2.282-1.847,4.129-4.131,4.129h-69.109c-2.267,0-4.113-1.847-4.113-4.129    c0-2.284,1.847-4.131,4.113-4.131H481.868z M384.771,462.064c2.284,0,4.131,1.847,4.131,4.13c0,2.284-1.847,4.131-4.131,4.131    H228.17c-2.285,0-4.131-1.847-4.131-4.131c0-2.283,1.846-4.13,4.131-4.13H384.771z M30.132,470.325    c-2.285,0-4.13-1.847-4.13-4.131c0-2.283,1.846-4.13,4.13-4.13h69.106c2.285,0,4.13,1.847,4.13,4.13    c0,2.284-1.846,4.131-4.13,4.131H30.132z M160.187,470.325c-2.267,0-4.113-1.847-4.113-4.131c0-2.283,1.846-4.13,4.113-4.13    h31.533c2.267,0,4.13,1.847,4.13,4.13c0,2.284-1.863,4.131-4.13,4.131H160.187z M311.45,368.343h-42.396v53.795h42.396V368.343z" style="fill-rule:evenodd;clip-rule:evenodd;"/>
</g>
</g>
<g id="Layer_1"/>
</svg>